<svg width="48" height="48" viewBox="0 0 48 48" fill="none" xmlns="http://www.w3.org/2000/svg">
<path fill-rule="evenodd" clip-rule="evenodd" d="M24 4V14L24 14.1088C23.9998 14.957 23.9997 15.7812 24.0911 16.461C24.1941 17.2274 24.4451 18.102 25.1716 18.8284C25.898 19.5549 26.7726 19.8059 27.539 19.9089C28.2188 20.0003 29.043 20.0002 29.8911 20H29.8911H29.8912H29.8912L30 20H40V32C40 37.6569 40 40.4853 38.2426 42.2426C36.4853 44 33.6569 44 28 44H20C14.3431 44 11.5147 44 9.75736 42.2426C8 40.4853 8 37.6569 8 32V16C8 10.3431 8 7.51472 9.75736 5.75736C11.5147 4 14.3431 4 20 4H24ZM28 4.00924V14C28 14.9993 28.0042 15.5477 28.0554 15.928L28.0574 15.9426L28.072 15.9446C28.4523 15.9958 29.0007 16 30 16H39.9908C39.9704 15.1767 39.905 14.6319 39.6955 14.1261C39.391 13.391 38.813 12.813 37.6569 11.6569L32.3431 6.34315C31.187 5.18702 30.609 4.60896 29.8739 4.30448C29.3681 4.09498 28.8233 4.02963 28 4.00924ZM16 26C16 24.8954 16.8954 24 18 24L30 24C31.1046 24 32 24.8954 32 26C32 27.1046 31.1046 28 30 28L18 28C16.8954 28 16 27.1046 16 26ZM18 32C16.8954 32 16 32.8954 16 34C16 35.1046 16.8954 36 18 36H26C27.1046 36 28 35.1046 28 34C28 32.8954 27.1046 32 26 32H18Z" fill="#FFD100"/>
</svg>
