<svg width="48" height="48" viewBox="0 0 48 48" fill="none" xmlns="http://www.w3.org/2000/svg">
<circle cx="24" cy="18" r="6" fill="#FFD100"/>
<path fill-rule="evenodd" clip-rule="evenodd" d="M34.903 31.8166C35.0179 32.0242 34.9588 32.2829 34.7688 32.4249C31.7659 34.6703 28.0384 36 24.0003 36C19.9622 36 16.2347 34.6703 13.2318 32.4249C13.0418 32.2829 12.9827 32.0242 13.0976 31.8166C14.9979 28.3831 19.1651 26 24.0003 26C28.8355 26 33.0027 28.3831 34.903 31.8166Z" fill="#FFD100"/>
<path d="M34 8H35.004C37.4267 8 38.6381 8 39.5667 8.464C40.419 8.88989 41.1101 9.58095 41.536 10.4333C42 11.3619 42 12.5733 42 14.996V16M34 40H35.004C37.4267 40 38.6381 40 39.5667 39.536C40.419 39.1101 41.1101 38.419 41.536 37.5667C42 36.6381 42 35.4267 42 33.004V32M14 8H12.996C10.5733 8 9.36191 8 8.43329 8.464C7.58095 8.88989 6.88989 9.58095 6.464 10.4333C6 11.3619 6 12.5733 6 14.996V16M14 40H12.996C10.5733 40 9.36191 40 8.43329 39.536C7.58095 39.1101 6.88989 38.419 6.464 37.5667C6 36.6381 6 35.4267 6 33.004V32" stroke="#FFD100" stroke-width="4" stroke-linecap="round"/>
</svg>
