<svg width="48" height="48" viewBox="0 0 48 48" fill="none" xmlns="http://www.w3.org/2000/svg">
<path fill-rule="evenodd" clip-rule="evenodd" d="M4.00348 20H43.9965C43.9723 15.6499 43.7794 13.2941 42.2426 11.7574C40.4853 10 37.6569 10 32 10H16C10.3431 10 7.51472 10 5.75736 11.7574C4.22059 13.2941 4.02769 15.6499 4.00348 20ZM44 24H4V28C4 33.6569 4 36.4853 5.75736 38.2426C7.51472 40 10.3431 40 16 40H32C37.6569 40 40.4853 40 42.2426 38.2426C44 36.4853 44 33.6569 44 28V24ZM14 30C12.8954 30 12 30.8954 12 32C12 33.1046 12.8954 34 14 34H14.02C15.1246 34 16.02 33.1046 16.02 32C16.02 30.8954 15.1246 30 14.02 30H14Z" fill="#FFD100"/>
</svg>
