<svg width="48" height="48" viewBox="0 0 48 48" fill="none" xmlns="http://www.w3.org/2000/svg">
<path fill-rule="evenodd" clip-rule="evenodd" d="M31.2419 5.33718L23.8628 4.17762C17.4217 3.16543 14.2011 2.65934 12.1005 4.45558C10 6.25182 10 9.51193 10 16.0321V21.9999H21.8388L16.4383 15.2493L19.5617 12.7505L27.5617 22.7505L28.5612 23.9999L27.5617 25.2493L19.5617 35.2493L16.4383 32.7505L21.8388 25.9999H10V31.9662C10 38.4864 10 41.7465 12.1005 43.5428C14.2011 45.339 17.4217 44.8329 23.8629 43.8207L31.2419 42.6612C34.4674 42.1543 36.0801 41.9009 37.0401 40.7783C38 39.6557 38 38.0232 38 34.7581V13.2402C38 9.97515 38 8.34263 37.0401 7.22005C36.0801 6.09747 34.4674 5.84404 31.2419 5.33718Z" fill="#FFD100"/>
</svg>
