<svg width="48" height="48" viewBox="0 0 48 48" fill="none" xmlns="http://www.w3.org/2000/svg">
<path fill-rule="evenodd" clip-rule="evenodd" d="M23.9999 2.96924C22.6851 2.96924 21.5412 3.8124 19.2533 5.49871L15.8115 8.03563C15.4511 8.30128 15.2709 8.43411 15.0774 8.54581C14.884 8.65751 14.6788 8.74716 14.2686 8.92646L14.2685 8.92646L10.3506 10.6387C7.7463 11.7769 6.44415 12.3459 5.78671 13.4846C5.12927 14.6234 5.28752 16.0356 5.604 18.8601L6.08012 23.1092C6.12998 23.5542 6.15491 23.7767 6.15491 24.0001C6.15491 24.2235 6.12998 24.4459 6.08012 24.8909L5.604 29.1401C5.28752 31.9645 5.12927 33.3768 5.78671 34.5155C6.44415 35.6542 7.7463 36.2233 10.3506 37.3614L14.2685 39.0737C14.6788 39.253 14.884 39.3426 15.0774 39.4543C15.2709 39.566 15.4511 39.6988 15.8115 39.9644L15.8115 39.9645L19.2533 42.5014C21.5412 44.1877 22.6851 45.0309 23.9999 45.0309C25.3148 45.0309 26.4587 44.1877 28.7465 42.5014L32.1884 39.9645L32.1884 39.9644C32.5488 39.6988 32.729 39.566 32.9225 39.4543C33.1159 39.3426 33.3211 39.253 33.7313 39.0737L37.6493 37.3614C40.2536 36.2233 41.5557 35.6542 42.2132 34.5155C42.8706 33.3768 42.7124 31.9645 42.3959 29.1401L41.9198 24.8909C41.8699 24.4459 41.845 24.2235 41.845 24.0001C41.845 23.7767 41.8699 23.5542 41.9198 23.1092L42.3959 18.8601C42.7124 16.0356 42.8706 14.6234 42.2132 13.4846C41.5557 12.3459 40.2536 11.7769 37.6493 10.6387L33.7313 8.92646L33.7313 8.92645C33.3211 8.74716 33.1159 8.65751 32.9225 8.54581C32.729 8.43411 32.5488 8.30128 32.1884 8.03563L28.7465 5.49872C26.4587 3.8124 25.3148 2.96924 23.9999 2.96924ZM23.9999 32.0001C28.4182 32.0001 31.9999 28.4183 31.9999 24.0001C31.9999 19.5818 28.4182 16.0001 23.9999 16.0001C19.5817 16.0001 15.9999 19.5818 15.9999 24.0001C15.9999 28.4183 19.5817 32.0001 23.9999 32.0001Z" fill="#FFD100"/>
</svg>
